<svg width="1180" height="560" viewBox="0 0 1180 560" xmlns="http://www.w3.org/2000/svg">
  <defs>
    <linearGradient id="bg" x1="0" y1="0" x2="1" y2="1">
      <stop offset="0%" stop-color="#FFF7F0"/>
      <stop offset="100%" stop-color="#E8F4FB"/>
    </linearGradient>
  </defs>
  <rect width="1180" height="560" rx="34" fill="url(#bg)"/>
  <path d="M110 360 C260 300 370 420 520 330 C650 250 770 160 940 205 C1000 220 1040 250 1070 280" fill="none" stroke="#7FB8AD" stroke-width="22" stroke-linecap="round"/>
  <circle cx="170" cy="346" r="46" fill="#FFFFFF" stroke="#EB8E72" stroke-width="12"/>
  <circle cx="450" cy="358" r="46" fill="#FFFFFF" stroke="#EB8E72" stroke-width="12"/>
  <circle cx="735" cy="233" r="46" fill="#FFFFFF" stroke="#EB8E72" stroke-width="12"/>
  <circle cx="990" cy="220" r="46" fill="#FFFFFF" stroke="#EB8E72" stroke-width="12"/>
  <text x="145" y="355" font-family="Arial" font-size="34" font-weight="700" fill="#17324D">9</text>
  <text x="415" y="367" font-family="Arial" font-size="30" font-weight="700" fill="#17324D">10</text>
  <text x="700" y="242" font-family="Arial" font-size="30" font-weight="700" fill="#17324D">11</text>
  <text x="953" y="229" font-family="Arial" font-size="30" font-weight="700" fill="#17324D">12</text>
  <g transform="translate(95 95)">
    <rect x="0" y="0" width="220" height="104" rx="20" fill="#FFFFFF" opacity="0.95"/>
    <text x="24" y="40" font-family="Arial" font-size="22" font-weight="700" fill="#12304A">Explore</text>
    <text x="24" y="72" font-family="Arial" font-size="18" fill="#4D6277">moving to reach a goal</text>
  </g>
  <g transform="translate(410 58)">
    <rect x="0" y="0" width="250" height="104" rx="20" fill="#FFFFFF" opacity="0.95"/>
    <text x="24" y="40" font-family="Arial" font-size="22" font-weight="700" fill="#12304A">Pull Up</text>
    <text x="24" y="72" font-family="Arial" font-size="18" fill="#4D6277">using furniture for support</text>
  </g>
  <g transform="translate(725 80)">
    <rect x="0" y="0" width="250" height="104" rx="20" fill="#FFFFFF" opacity="0.95"/>
    <text x="24" y="40" font-family="Arial" font-size="22" font-weight="700" fill="#12304A">Cruise</text>
    <text x="24" y="72" font-family="Arial" font-size="18" fill="#4D6277">steps along the couch</text>
  </g>
  <g transform="translate(860 350)">
    <rect x="0" y="0" width="220" height="104" rx="20" fill="#FFFFFF" opacity="0.95"/>
    <text x="24" y="40" font-family="Arial" font-size="22" font-weight="700" fill="#12304A">Connect</text>
    <text x="24" y="72" font-family="Arial" font-size="18" fill="#4D6277">gesture, wave, point</text>
  </g>
</svg>
